<?xml version="1.0" standalone="no"?>
<!DOCTYPE svg PUBLIC "-//W3C//DTD SVG 20010904//EN"
 "http://www.w3.org/TR/2001/REC-SVG-20010904/DTD/svg10.dtd">
<svg version="1.0" xmlns="http://www.w3.org/2000/svg"
 width="243.000000pt" height="288.000000pt" viewBox="0 0 243.000000 288.000000"
 preserveAspectRatio="xMidYMid meet">
<metadata>
Created by potrace 1.16, written by Peter Selinger 2001-2019
</metadata>
<g transform="translate(0.000000,288.000000) scale(0.100000,-0.100000)"
fill="#000000" stroke="none">
<path d="M1434 2683 c11 -35 75 -410 90 -528 55 -430 45 -647 -39 -820 -80
-166 -327 -391 -665 -603 -187 -117 -233 -132 -481 -162 -178 -21 -239 -42
-264 -91 -29 -56 -14 -102 48 -143 62 -40 147 -63 397 -106 341 -60 363 -62
454 -49 106 14 181 46 280 118 217 157 415 224 716 241 94 5 173 15 201 25
143 50 198 186 151 370 -73 286 -107 643 -91 944 9 179 32 365 78 641 16 96
28 176 27 177 -1 1 -31 -7 -66 -19 -123 -40 -558 -35 -763 8 -84 17 -79 18
-73 -3z"/>
</g>
</svg>
